<?xml version="1.0" encoding="utf-8"?>
<!-- Generator: Adobe Illustrator 27.5.0, SVG Export Plug-In . SVG Version: 6.00 Build 0)  -->
<svg version="1.1" id="Capa_1" xmlns="http://www.w3.org/2000/svg" xmlns:xlink="http://www.w3.org/1999/xlink" x="0px"
	y="0px" viewBox="225 40 120 100" style="enable-background:new 0 0 425.2 425.2;" xml:space="preserve">
	<g>
		<g>
			<g>

				<path
					style="fill:none;stroke:#151515;stroke-width:4.107;stroke-linecap:round;stroke-linejoin:round;stroke-miterlimit:10;"
					d="
				M316.581,91.045c0-13.247,5.642-23.985,12.602-23.985c6.96,0,12.602,10.738,12.602,23.985" />

				<path
					style="fill:none;stroke:#151515;stroke-width:4.107;stroke-linecap:round;stroke-linejoin:round;stroke-miterlimit:10;"
					d="
				M231.618,91.045c0-13.247,5.642-23.985,12.602-23.985c6.96,0,12.602,10.738,12.602,23.985" />
			</g>
			<g>
				<ellipse style="fill:#D96283;" cx="238.132" cy="103.834" rx="10.57" ry="4.641" />
				<path style="fill:#D96283;" d="M344.742,103.834c0,2.563-4.733,4.641-10.569,4.641c-5.837,0-10.57-2.078-10.57-4.641
				c0-2.563,4.732-4.641,10.57-4.641C340.009,99.192,344.742,101.271,344.742,103.834z" />
			</g>

			<path
				style="fill:none;stroke:#151515;stroke-width:3.2522;stroke-linecap:round;stroke-linejoin:round;stroke-miterlimit:10;"
				d="
			M297.806,114.166c0,8.232-5.217,14.906-11.654,14.906c-6.436,0-11.653-6.674-11.653-14.906" />

			<path
				style="fill:none;stroke:#151515;stroke-width:3.6314;stroke-linecap:round;stroke-linejoin:round;stroke-miterlimit:10;"
				d="
			M314.391,81.644" />
			<g>

				<path
					style="fill:none;stroke:#151515;stroke-width:2.5374;stroke-linecap:round;stroke-linejoin:round;stroke-miterlimit:10;"
					d="
				M242.27,49.268c0,0-10.451-2.125-13.083,8.392" />

				<path
					style="fill:none;stroke:#151515;stroke-width:2.5374;stroke-linecap:round;stroke-linejoin:round;stroke-miterlimit:10;"
					d="
				M330.033,49.268c0,0,10.451-2.125,13.083,8.392" />
			</g>
		</g>
	</g>
</svg>