<?xml version="1.0" encoding="utf-8"?>
<!-- Generator: Adobe Illustrator 27.5.0, SVG Export Plug-In . SVG Version: 6.00 Build 0)  -->
<svg version="1.1" id="Layer_1" xmlns="http://www.w3.org/2000/svg" xmlns:xlink="http://www.w3.org/1999/xlink" x="0px"
	y="0px" viewBox="-494.254 -77.299 59.528 50.25" style="enable-background:new -494.254 -77.299 59.528 50.25;"
	xml:space="preserve">
	<!-- <rect x="-494.254" y="-77.3" style="fill-rule:evenodd;clip-rule:evenodd;fill:#FFFFFF;" width="59.528" height="50.25"/> -->
	<g>
		<g>
			<path style="fill-rule:evenodd;clip-rule:evenodd;fill:#141515;" d="M-468.487-62.971c0,0-0.36-0.458-0.36-1.005
			c0-0.546,0.435-0.411,0.47-0.276c0.036,0.136,0.043,0.189,0.043,0.189s0.314-0.262,0.375,0.074
			C-467.901-63.653-468.459-63.208-468.487-62.971L-468.487-62.971z" />
			<path style="fill-rule:evenodd;clip-rule:evenodd;fill:#141515;" d="M-465.459-62.1c0.005-0.017-0.289-0.503-0.101-1.143
			c0.194-0.639,0.641-0.525,0.698-0.36c0.058,0.165,0,0.369,0,0.369s0.39-0.118,0.548,0.047
			C-464.155-63.02-465.223-62.3-465.459-62.1L-465.459-62.1z" />
			<path style="fill-rule:evenodd;clip-rule:evenodd;fill:#141515;" d="M-467.431-59.361c0-0.018-0.47-0.42-0.48-1.308
			c-0.008-0.891,0.487-0.647,0.61-0.402c0.128,0.246,0.152,0.42,0.152,0.42s0.47-0.721,0.698-0.272
			c0.229,0.448-0.309,1.171-0.559,1.498c-0.251,0.33-0.329,0.353-0.329,0.353l-0.133-0.209L-467.431-59.361z M-467.354-59.466
			c0,0-0.447-0.566-0.412-1.096c0.036-0.529,0.254-0.648,0.378-0.404c0.12,0.246,0.191,0.852,0.234,0.903
			c0.047,0.048,0.109,0.035,0.109,0.035s-0.07-0.49,0.159-0.706c0.224-0.215,0.36-0.12,0.307,0.065
			C-466.632-60.487-466.874-59.652-467.354-59.466L-467.354-59.466z" />
		</g>
		<g>
			<path style="fill-rule:evenodd;clip-rule:evenodd;fill:#141515;" d="M-476.783-60.862c-0.017,0,0.003-0.365,0.084-0.501
			c0.084-0.135,0.256,0.018,0.256,0.018s0.136-0.517,0.823-1.315c0.684-0.797,1.135-0.634,1.135-0.634s0.456-0.398,1.309-0.66
			c0.851-0.261,1.726-0.479,1.726-0.479s-0.543,0.477-0.694,0.579c-0.149,0.103-0.194,0.156-0.082,0.156
			c0.111,0,0.855,0.192,1.299,0.282c0.444,0.089,0.694,0.354,0.694,0.354s-0.518,0.012-0.645,0.082
			c-0.126,0.069,0.325,0.483,0.496,0.802c0.174,0.318,0.33,0.441,0.33,0.441s-0.31-0.117-0.412-0.189
			c-0.105-0.072-0.169-0.046-0.094,0.092c0.076,0.139,0.35,0.814,0.957,1.387c0.61,0.572,0.872,0.689,0.872,0.689
			s-0.798-0.235-1.046-0.361c-0.248-0.126-0.255-0.063-0.258-0.003c-0.005,0.059,0.139,0.927,0.253,1.324
			c0.117,0.397,0.174,0.454,0.174,0.454s-0.478-0.407-0.6-0.626c-0.122-0.218-0.107-0.214-0.107-0.214s0.223,1.186,0.642,1.576
			c0.421,0.39,0.999,0.678,1.383,0.883c0.384,0.206,0.538,0.401,0.538,0.401s0.07-0.044,0.186-0.127
			c0.072,0.031,0.151,0.058,0.233,0.075c-0.032,0.021-0.049,0.034-0.049,0.034c1.336,0.242,2.196,1.268,2.196,1.268
			s-0.097-0.062-0.302-0.079c-0.204-0.018-0.784,0.139-0.979,0.692c-0.195,0.553-0.188,1.515,0.308,2.098
			c0.498,0.583,0.622,1.435,0.528,1.808c-0.096,0.374-0.109,1.32-0.109,1.32s0.132-0.231,0.504-0.427
			c0.369-0.195,1.212-0.734,1.212-0.734s0.02-0.375-0.134-0.619c-0.151-0.245-0.446-0.47-0.699-1.136
			c-0.25-0.664,0.005-1.311,0.059-1.303c0.058,0.005-0.012,0.386,0.269,0.836c0.282,0.45,0.813,1.016,0.813,1.016
			s0.01-0.592-0.139-1.161c-0.149-0.568-0.652-1.221-1.19-0.972c-0.535,0.246-0.582,0.885-0.317,1.221
			c0.265,0.334,0.461,1.079,0.3,1.394c-0.159,0.314-0.375,0.886-0.389,0.922c-0.018,0.037,0.039-0.36,0.102-0.723
			c0.064-0.365-0.141-0.991-0.39-1.206c-0.25-0.214-0.845-1.035-0.733-1.78c0.114-0.745,0.719-1.314,1.711-0.952
			c0.989,0.365,1.482,1.703,1.42,2.187c-0.06,0.483-0.161,1.999-0.161,1.999s0.352-0.291,1.524-0.59
			c1.255-0.318,1.669-0.079,2.367,0.569c0.311,0.286,1.02,1.468,1.26,1.909c0.922,1.924,1.123,3.166,2.77,4.79
			c0.421,0.454,0.664,0.606,1.127,0.874c0.092,0.061,0.201,0.115,0.293,0.157c1.202,0.579,3.661,0.715,4.822,0.209
			c0,0,0,0.604-0.246,0.819c-0.244,0.221-0.556,0.119-0.556,0.119s-0.072,0.454-0.696,0.746c-0.622,0.29-1.158-0.049-1.602,0.221
			c-0.443,0.273-0.649,0.643-0.964,0.798c-0.315,0.156-0.659-0.21-0.659-0.21s-0.011,0.003-0.033,0.008
			c-0.086-0.078-0.166-0.164-0.228-0.253c0.022-0.009,0.033-0.011,0.033-0.011s-0.082-0.124-0.171-0.293
			c-0.025-0.113-0.069-0.221-0.141-0.331c-0.114-0.303-0.486-0.573-0.558-0.642c-0.017-0.015-0.04-0.023-0.059-0.02
			c-0.145-0.132-0.315-0.28-0.516-0.451c-0.188-0.16-0.404-0.336-0.629-0.514c-0.049-0.053-0.107-0.107-0.161-0.137
			c-0.025-0.015-0.052-0.032-0.08-0.05c-0.781-0.606-1.579-1.18-1.581-1.183c-0.404-0.332-1.059-0.903-1.347-1.346
			c-0.434-0.666-0.952-1.391-0.972-2.293c-0.02-0.904,0.429-1.421,0.799-0.984c0.372,0.439,0.944,1.965,1.246,2.536
			c0.3,0.573,0.315,0.633,0.315,0.633s-0.638-0.828-1.071-1.452c-0.434-0.627-0.744-0.735-0.757-0.359
			c-0.01,0.379,0.66,1.669,1.808,2.755c1.145,1.086,2.05,1.542,3.198,1.887c1.15,0.344,1.349,0.368,1.349,0.368
			s-0.746,0.005-0.826,0.364c-0.079,0.358,0.566,0.949,1.089,0.967c0.523,0.015,0.585-0.324,1.197-0.582
			c0.612-0.258,0.681-0.281,0.649-0.251c-0.032,0.032-0.505,0.612-0.092,0.656c0.414,0.043,0.88-0.277,1.017-0.42
			c0.136-0.143,0.129-0.46,0.323-0.388c0.19,0.071,0.421,0.032,0.602-0.159c0.178-0.192-0.01-0.272-0.156-0.241
			c-0.147,0.029-0.441,0.169-1.044,0.169c-0.602,0-1.745-0.026-1.884,0.023c-0.139,0.049-0.947-0.256-1.15-0.321
			c-0.201-0.067-2.182-0.828-3.193-2.34c-1.009-1.515-2.18-4.136-2.945-4.409c-0.764-0.275-1.222,0.574-1.222,0.574
			s0.074-1.859-1.337-1.657c-1.413,0.202-3.151,1.152-4.331,2.402c-1.178,1.253-0.987,2.868,0.431,2.781
			c1.418-0.086,3.015-1.41,3.015-1.41s-0.186,0.9-1.106,1.953c-0.922,1.053-2.32,2.429-2.32,2.429s0.5-1.678-0.08-2.217
			c-0.58-0.54-1.45-0.311-1.45-0.271c0,0.04,0.139,0.324,0.139,0.324s0.746-0.204,1.115,0.605c0.216,0.468,0.293,1.784-0.183,2.015
			c-0.149-1.017-0.774-1.899-1.277-2.777c0.015-0.015,0.027-0.031,0.032-0.036c0.005-0.01-0.488-0.922-0.603-1.997
			c-0.111-1.077,0.751-1.951,0.751-1.951s-0.032,0.018-0.268-0.065c-0.235-0.082-0.605-0.227-0.605-0.227s0.27,0.01,0.789-0.099
			c0.516-0.11,1.74-0.179,1.775-0.188c0.032-0.012-0.342,0.184-0.739,0.605c-0.396,0.42-0.79,1.174-0.78,1.211
			c0.01,0.037-0.065-0.039-0.06-0.185c0.003-0.146,0.043-0.814,0.043-0.814s-0.226,0.091-0.436,0.66
			c-0.213,0.57-0.196,1.097-0.196,1.097s0.523-0.466,0.732-0.629c0.207-0.161,1.428-1.185,1.428-1.185s-0.204,0.078-0.471,0.212
			c-0.268,0.133-0.769,0.602-0.769,0.602s0.144-0.252,0.272-0.417c0.129-0.165,0.395-0.495,0.395-0.495s0.23-0.035,0.483-0.13
			c0.251-0.098,0.794-0.56,0.794-0.56s-0.023-0.012-0.159-0.314c-0.136-0.305-0.04-0.663-0.04-0.663s-0.268,0.374-0.977,0.67
			c-0.709,0.294-1.473,0.086-1.473,0.086s0.655,0.068,1.257-0.258c0.603-0.328,0.764-1.021,0.766-1.036
			c0.002-0.018-0.022,0.158-0.57,0.33c-0.545,0.173-1.19,0.054-1.19,0.054s0.615-0.056,1.378-0.729
			c0.766-0.673,0.629-1.258,0.629-1.258s-0.151-0.112-0.476-0.758c-0.324-0.646-0.168-1.54-0.024-1.832
			c0.146-0.291,0.615-0.446,0.615-0.446s-0.084-0.171-0.575-0.311c-0.489-0.139-0.913-0.079-0.913-0.079s-0.064-0.153-0.372-0.557
			c-0.308-0.404-0.54-0.556-0.965-0.699c-0.423-0.141-0.768-0.564-0.763-0.585c0.002-0.02,0.089,0.444,0.188,0.605
			c0.099,0.162,0.359,1.1,0.359,1.1s-0.169-0.355-0.297-0.628c-0.129-0.276-0.421-0.855-0.421-0.855s0.015,0.119-0.142,0.595
			c-0.156,0.477-0.454,0.844-0.828,1.223c-0.374,0.376-0.699,0.603-1.036,0.682c-0.34,0.078-0.293-0.369-0.295-0.686
			c-0.005-0.318-0.364-1.215-0.364-1.215s-0.084,0.034-0.218,0.03c-0.136-0.004-0.285-0.123-0.285-0.123s0.131,0.196,0.226,0.699
			c0.091,0.503-0.011,1.083-0.011,1.083s0.021-0.248-0.064-0.567c-0.082-0.317-0.208-0.533-0.208-0.533s-0.228,0.686-0.066,1.143
			c0.163,0.456,0.729,0.979,0.818,1.515c0.089,0.535-0.022,1.169-0.005,1.885c0.016,0.715-0.248,2.995-0.248,2.995l0.213,0.033
			c0,0,0.164-1.394,0.164-1.761c0-0.368,0.159-2.42,0.26-2.891c0.104-0.469,0.23-0.81,1.081-1.516
			c0.85-0.705,1.006-1.608,1.006-1.608s-0.032,1.349-0.362,2.021c-0.327,0.674-0.671,0.831-1.056,1.202
			c-0.384,0.371-0.3,0.698-0.3,0.698s0.427-0.546,1.059-0.747c0.632-0.202,1.081,0.089,1.081,0.089s-0.226,0.01-0.548,0.165
			c-0.319,0.156-0.535,0.493-0.873,0.798c-0.339,0.306-0.766,0.357-0.766,0.357s0.139,0.116,0.377,0.099
			c0.238-0.016,0.573-0.16,1.039-0.31c0.463-0.15,0.727,0.201,0.727,0.201s0.079-0.017,0.161-0.239
			c0.08-0.221,0.241-0.7,0.099-0.813c-0.143-0.112-0.097-0.268-0.158-0.457c-0.065-0.186-0.325-0.646-0.429-0.797
			c-0.102-0.152-0.05-0.361,0.064-0.327c0.112,0.032,0.419,0.234,0.573,0.525c0.152,0.291,0.295,0.422,0.367,0.235
			c0.072-0.186,0.01-0.662,0.116-0.858c0.104-0.193,0.162-0.83,0.179-0.965c0.017-0.136,0.189-0.323,0.248-0.308
			c0.06,0.014,0.063,0.509,0.049,0.883c-0.012,0.375-0.04,0.922-0.225,1.166c-0.186,0.242-0.134,0.685-0.134,0.685
			s-0.03,0.063-0.136,0.005c-0.109-0.059-0.248-0.317-0.312-0.307c-0.065,0.011-0.028,0.248,0.054,0.419
			c0.08,0.169,0.161,0.495-0.476,1.545c-0.634,1.049-1.361,1.558-1.797,1.951c-0.437,0.395-1.339,1.285-1.339,1.285l0.248-0.321
			c0,0-0.479-0.108-0.987-0.261c-0.505-0.152-2.075-0.673-2.494-0.917c-0.417-0.245-1.805-1.259-2.655-1.374
			c-0.853-0.116-1.527,0.457-1.75,1.212c-0.221,0.754-0.384,2.072,0.02,3.207c0.404,1.134,1.455,1.913,1.455,1.913
			s-0.251-0.381-0.84-1.247c-0.59-0.867-0.652-2.183-0.635-2.722c0.015-0.539,0.084-1.986,1.376-2.218
			c1.292-0.232,2.37,1.259,2.993,2.414c0.622,1.154,1.991,1.63,1.991,1.63s-0.204-0.023-0.702-0.128
			c-0.501-0.107-1.301-0.358-1.876-0.676c-0.573-0.317-1.785-0.993-2.15-1.557c-0.364-0.562-0.027-0.725,0.523-0.598
			c0.55,0.124,0.902,0.835,0.902,0.835s0.084,0.035-0.223-0.173c-0.308-0.208-0.565-0.079-0.55,0.05
			c0.017,0.128,0.332,0.646,0.994,0.769c0.664,0.121,0.687-0.299,0.303-0.792c-0.384-0.494-1.634-1.378-2.313-1.111
			c-0.679,0.264-0.275,1.27,0.523,1.826c0.798,0.556,2.452,1.188,2.452,1.188s-0.231,0.006-0.742-0.12
			c-0.51-0.125-1.646-0.446-1.646-0.446s0.595,0.504,2.139,0.774c1.542,0.271,3.947,0.507,3.947,0.507s-0.297-0.082-0.575-0.474
			c-0.277-0.391-0.721-0.686-0.721-0.686s0.354,0.083,0.692,0.229c0.337,0.146,1.096,0.559,1.202,0.488
			c0.106-0.074,0.531-0.419,1.085-0.974c0.558-0.557,1.037-1.384,1.27-1.81c0.23-0.429,0.57-1.455,0.87-1.935
			c0.303-0.479,0.538-0.924,0.63-1.33c0.094-0.407,0.322-0.848,0.503-1.105c0.184-0.258,0.335-0.626,0.359-0.668
			c0.022-0.043,0.042,0.091,0.039,0.24c-0.005,0.149-0.091,0.531-0.156,0.806c-0.064,0.273-0.243,0.434-0.411,0.606
			c-0.169,0.175-0.196,0.398-0.308,0.567c-0.114,0.167-0.499,0.91-0.724,1.413c-0.228,0.503-0.791,1.958-1.177,2.636
			c-0.387,0.679-0.536,0.829-0.952,1.197c-0.414,0.366-0.602,0.919-0.602,0.919s-0.033-0.005-0.191-0.008
			c-0.158-0.002-0.426-0.002-0.426-0.002c0.072,0.094,0.494,0.219,0.642,0.236c0.148,0.015,0.188-0.044,0.246-0.252
			c0.057-0.209,0.376-0.57,0.932-1.059c0.553-0.49,0.647-1.103,0.647-1.103s0.092,0.044,0.38,0.086
			c0.287,0.043,0.563,0.057,0.563,0.057s-0.396,0.284-0.572,0.9c-0.176,0.616-0.154,1.322-0.154,1.322s-0.015,0.044-0.3,0.34
			c-0.285,0.294-0.441,0.592-0.441,0.592s-0.027-0.013-0.391-0.066c-0.365-0.052-1.203-0.663-1.203-0.663s0.075,0.213,0.528,0.547
			c0.454,0.334,1.105,0.456,1.197,0.341c0.089-0.119,0.727-0.981,0.736-0.981c0.01,0,0.017,0.206,0.099,0.498
			c0.077,0.267,0.335,0.894,0.379,1.008c-0.015,0.01-0.042,0.02-0.079,0.031c-0.159,0.052-1.21,0.683-1.5,1.497
			c-0.293,0.814,0.23,1.652,0.384,1.793c0.151,0.144,0.622,0.441,1.378-0.18c0.753-0.623,0.679-1.577,0.711-1.597
			c0.032-0.021,0.216,0.463,0.272,0.571c0.055,0.11,0.251,0.636,0.139,0.856c-0.114,0.218-0.805,1.028-1.715,1.322
			c-1.321,0.427-1.592-0.083-2.601-0.274l0,0c-0.082-0.022-0.248-0.057-0.469-0.069c-0.32-0.02-0.984-0.174-0.984-0.174
			c0.54,0.193,1.428,0.559,1.515,1.202c-0.203-0.255-1.475-0.731-1.797-0.795c-0.833-0.174-1.297-0.604-1.297-0.604
			s0.675,0.743,0.9,0.945c0.226,0.205,0.775,1.14,0.775,1.14s-0.836-1.038-1.458-1.442c-0.622-0.404-1.735-1.065-2.246-1.338
			c-0.511-0.271-0.669-0.477-0.669-0.477s0.367,0.583,0.885,0.88c0.515,0.299,0.785,0.336,0.785,0.355
			c0,0.02-1.003-0.198-1.621-0.563c-0.615-0.364-1.007-0.735-1.007-0.735s0.325,0.629,1.43,1.054c1.108,0.423,2.08,1.172,2.744,2.19
			c0.662,1.019,0.635,2.444,0.635,2.444s-0.238-1.953-2.152-2.975c-1.917-1.02-3.513-1.646-3.85-1.879
			c-0.337-0.23,0.233,0.253,0.57,0.384c0.337,0.132,2.052,1,2.377,2.489c0.325,1.489,0.054,2.132,0.054,2.132
			s0.184-2.747-2.888-4.17c-3.074-1.426-3.339-2.986-3.359-3.006c-0.02-0.021,0.179,1.502,1.502,2.74
			c1.326,1.237,1.949,1.229,1.949,1.229s-1.544-0.15-2.77-1.244c-1.224-1.09-1.304-1.475-1.304-1.475s0.424,1.391,1.51,2.224
			c1.085,0.836,2.841,1.371,2.841,1.371s-1.586-0.199-3.054-1.284c-6.066-4.493-1.986-19.933,2.915-15.706
			c0.342,0.296,0.181,0.647,0.34,0.874c0.015,0.042,0.052,0.105,0.111,0.191c0.164,0.231,0.637,0.444,0.711,0.501
			c0.077,0.056-0.01,0.246-0.085,0.357c-0.077,0.109-0.106,0.176-0.02,0.228c0.085,0.055,0.104,0.103,0.094,0.167
			c-0.01,0.063,0.057,0.114,0.117,0.164c0.059,0.052-0.06,0.039-0.072,0.123c-0.015,0.084,0.085,0.226,0.085,0.226
			s0.185-0.408,0.605-0.835c0.416-0.427,0.932-0.474,1.155-0.251c0.221,0.222,0.099,0.722,0.081,1.691
			c-0.015,0.969,0.159,1.499,0.218,1.583c0.06,0.081,0.038,0.154-0.121,0.029c-0.159-0.125-0.342-0.912-0.342-0.93
			c0-0.021-0.104,0.025-0.26,0.321c-0.156,0.293-0.216,0.65-0.216,0.65s0.434,0.299,0.949,0.252
			c0.518-0.047,1.483,0.047,1.565-0.029c0.082-0.077,0.173-0.077,0.195,0.047c0.022,0.123,0.08,0.379,0.08,0.379
			s0.062,0.03,0.246-0.165c0.181-0.194,0.417-0.53,0.417-0.53s0.025-0.02,0.317-0.254c0.296-0.234,0.213-0.596,0.213-0.596
			s-0.176,0.281-0.521,0.49c-0.344,0.208-0.679,0.094-1.299-0.36c-0.618-0.454-1.029-0.296-1.029-0.296s0.106-0.188,0.634-0.402
			c0.531-0.217,0.768,0.074,1.344,0.331c0.573,0.254,0.898-0.099,0.898-0.099c-0.56-0.038-0.848-0.171-1.307-0.703
			c-0.456-0.534-1.098-0.332-1.098-0.332s0.575-0.324,1.344-0.381c0.769-0.056,1.22,1.006,1.22,1.006s0.079-0.325-0.109-0.588
			c-0.191-0.261-0.675-0.447-0.856-1.367c-0.183-0.92,0.053-1.598,0.053-1.598s-0.084,0.075-0.25,0.254
			c-0.167,0.18-0.327,0.146-0.897,0.375c-0.57,0.228-0.922,0.926-0.905,1.189c0.018,0.261-0.188,0.617-0.188,0.617
			s0.139-0.631-0.216-0.837c-0.354-0.205-0.686,0.018-0.738,0.018c-0.053,0,0.168-0.205,0.563-0.486
			c0.33-0.236,0.741-0.499,0.87-0.579c0.057-0.022,0.111-0.045,0.158-0.064l0.007,0.005c0,0,0.801-0.13,1.094-0.296
			c0.29-0.165,0.496-0.663,0.496-0.722c0-0.06-0.621-0.979-0.621-0.979s-0.011,0.264,0.034,0.456c0.042,0.192,0.34,0.647,0.33,0.64
			c-0.007-0.008-0.754-1.02-0.833-1.211c-0.08-0.189-0.028,0.444,0.094,0.746c0.119,0.301,0.439,0.655,0.454,0.655
			c0.015-0.002-0.545-0.418-0.746-0.924c-0.203-0.507-0.203-0.572-0.206-0.565c-0.002,0.008-0.052,0.404,0.055,0.715
			c0.106,0.311,0.438,0.859,0.438,0.85c0-0.007-0.6-0.75-0.739-1.192c-0.141-0.443-0.111-0.281-0.148-0.168
			c-0.04,0.113,0.158,0.775,0.265,0.953c0.106,0.179,0.179,0.247,0.179,0.247s-0.625-0.467-0.866-1.131
			c-0.243-0.666-0.277-0.901-0.277-0.901s0.089,0.835,0.272,1.229c0.186,0.394,0.679,1.307,0.679,1.307s-0.431-0.444-0.81-1.092
			c-0.062-0.11-0.124-0.228-0.189-0.348c-0.064-0.13-0.124-0.267-0.176-0.406c-0.384-1.033-0.131-2.338-0.139-2.675
			C-476.669-60.471-476.783-60.862-476.783-60.862L-476.783-60.862z M-483.397-53.565c0,0.001,0,0.001,0,0.002
			C-483.397-53.563-483.397-53.564-483.397-53.565L-483.397-53.565z M-484.094-51.046
			C-484.094-51.047-484.094-51.047-484.094-51.046L-484.094-51.046L-484.094-51.046z M-483.479-48.41c0,0-0.384-0.67-0.521-1.366
			c-0.129-0.67-0.097-1.243-0.094-1.27c-0.184,1.544-0.028,2.777,0.228,3.562c0,0-0.503-1.3-0.506-2.271
			c-0.003-0.974,0.077-1.176,0.064-1.151c-0.01,0.021-0.315,1.075-0.223,1.851c0.082,0.693,0.144,0.897,0.156,0.932
			c-0.57-1.618-0.086-3.448,0.555-4.98c0.3-0.718,0.622-1.216,0.804-1.473c0.18-0.259,0.201-0.296,0.201-0.296
			s-0.55,1.043-0.583,1.309c0.012-0.031,0.317-0.526,0.59-0.93c0.277-0.413,0.414-0.466,0.414-0.466s-0.54,1.017-0.661,1.338
			c-0.122,0.32-0.179,0.49-0.179,0.49c0.528-1.023,1.685-2.449,2.734-2.959c0,0-0.852,0.55-0.843,1.361
			c0.01,0.811-0.01,1.373-0.198,1.97c-0.19,0.596-0.513,0.566-0.513,0.566s0.208-0.151,0.389-0.742
			c0.184-0.588,0.149-1.102,0.139-1.083c-0.01,0.022-0.111,0.627-0.404,0.943c0,0,0.049-0.316,0.047-0.816
			c-0.002-0.5,0.226-0.881,0.226-0.881C-483.702-53.231-483.999-50.71-483.479-48.41L-483.479-48.41z M-480.794-53.746
			c0,0,0.081-0.353-0.095-0.816c-0.179-0.463,0.189-0.983,0.442-1.165c0.252-0.182,0.537-0.107,0.848,0.205
			c0.309,0.313,0.332,0.615,0.391,0.784c0.06,0.171,0.454,0.539,0.682,0.598c0.226,0.059,0.211,0.093,0.151,0.202
			c-0.059,0.108-0.198,0.271-0.198,0.299c0.002,0.025,0.203,0.146,0.215,0.15c0.013,0.005,0.043,0.059-0.037,0.152
			c-0.082,0.094-0.062,0.144,0.012,0.111c0.075-0.032,0.099-0.037,0.104,0.022c0.002,0.058-0.072,0.17,0.042,0.326
			c0.117,0.157,0.281,0.281,0.186,0.514c-0.097,0.231-1.011,0.556-1.267,0.674c-0.255,0.116-0.426,0.032-0.426,0.032
			s0.26-0.141,0.412-0.427c0.151-0.289,0.104-0.498,0.104-0.498s-0.347,0.874-1.108,0.708c-0.764-0.165-0.776-0.671-0.73-1.028
			C-481.019-53.26-480.836-53.263-480.794-53.746L-480.794-53.746z M-480.454-53.727c0,0-0.114-0.266,0.144-0.653
			c0.26-0.387,0.411-0.469,0.449-0.69c0.034-0.222,0.042-0.249,0.042-0.249s0.139,0.285,0.173,0.491
			c0.033,0.204,0.06,0.283,0.124,0.204c0.067-0.079,0.107-0.179,0.107-0.179s-0.01,0.337,0.065,0.408
			c0.072,0.069,0.129,0.23,0.072,0.308c-0.058,0.075-0.204,0.033-0.204,0.033s0.085-0.134-0.02-0.126
			c-0.102,0.007-0.159,0.105-0.39,0.256c-0.233,0.153-0.255,0.078-0.255,0.078s0.298-0.222,0.402-0.414
			c0.101-0.191-0.047-0.352-0.221-0.219C-480.137-54.347-480.37-54.143-480.454-53.727L-480.454-53.727z M-481.915-43.732
			c0.018,0.026,0.278,0.578,0.732,1.132c0.454,0.554,0.669,0.742,0.669,0.742s-0.268-0.085-0.414-0.174
			c-0.145-0.089-0.226-0.185-0.231-0.194c-0.007-0.01,0.317,0.433,0.443,0.519c0.126,0.088,0.122,0.159,0.122,0.159
			s-0.768-0.488-1.217-1.062c-0.452-0.573-0.538-0.791-0.538-0.791s0.501,0.505,0.639,0.628c0.139,0.122,0.129,0.097,0.129,0.097
			S-481.993-43.408-481.915-43.732L-481.915-43.732z M-475.658-42.56c0.003,0.003,0.536,0.449,0.92,0.603
			c0.384,0.151,0.64,0.432,0.624,0.432C-474.131-41.526-475.241-41.837-475.658-42.56L-475.658-42.56z M-479.056-44.189
			c0.035,0.025,0.791,0.729,0.791,0.729l-0.578-0.878c0,0,0.592,0.434,0.93,0.996c0.337,0.563,0.709,1.073,0.706,1.057
			C-477.212-42.302-478.831-43.513-479.056-44.189L-479.056-44.189z M-478.573-45.027c0,0,0.418,0.669,1.045,1.226
			c0.63,0.556,1.329,0.684,1.312,0.678C-476.231-43.13-478.439-45.136-478.573-45.027L-478.573-45.027z M-482.445-48.503
			c-0.01,0,0.074-0.647,0.166-1.186c0.094-0.541,0.216-0.676,0.216-0.676s-0.07,1.23-0.037,1.586
			c0.035,0.354,0.057,0.538,0.057,0.538s0.032-0.738,0.265-1.309c0.233-0.572,0.293-0.839,0.293-0.839s0.022,0.849-0.201,1.605
			c-0.221,0.76-0.173,2.152,0.255,2.931c0.432,0.777,1.563,1.817,1.563,1.817s-0.769-0.317-1.279-0.824
			c-0.511-0.507-0.771-1.044-0.764-1.023c0.01,0.021,0.243,1.08,0.959,1.719c0.714,0.639,0.773,0.751,0.773,0.751
			s-0.862-0.351-1.371-1.182c-0.505-0.832-0.523-1.057-0.523-1.029c0,0.027,0.208,1.132,0.711,1.734
			c0.503,0.602,0.659,0.698,0.659,0.698s-0.914-0.611-1.304-1.521c-0.392-0.906-0.627-2.303-0.667-3.117
			c-0.04-0.814,0.057-1.452,0.124-1.794c0.064-0.342,0.069-0.387,0.069-0.387S-482.547-48.747-482.445-48.503L-482.445-48.503z
			 M-484.047-44.311c0,0-0.104-0.629-0.057-1.686c0.047-1.056,0.681-1.891,0.681-1.891s-0.086,0.65-0.116,0.924
			c-0.027,0.275-0.035,0.371-0.035,0.371s0.295-0.975,0.409-1.354c0.117-0.38,0.35-0.751,0.35-0.751s-0.355,1.714-0.424,2.617
			c-0.069,0.902-0.005,2.691-0.005,2.691s-0.24-0.579-0.364-1.496c-0.121-0.916,0.03-1.384,0.03-1.384
			S-483.977-45.775-484.047-44.311L-484.047-44.311z M-481.585-51.842c-0.013,0.029,0.024,0.41,0.369,0.417
			c0.345,0.007,0.902,0.182,0.692,1.04c-0.208,0.857-0.655,1.411-0.652,2.452c0.005,1.042,0.147,1.397,0.147,1.397
			s-0.355-0.447-0.317-1.583c0.035-1.135,0.587-2.115,0.61-2.598c0.017-0.483-0.441-0.518-0.5-0.5
			C-481.298-51.199-481.629-51.174-481.585-51.842L-481.585-51.842z M-483.189-48.459c0,0,0.325-0.427,0.405-0.988
			c0.08-0.563-0.045-1.295-0.04-1.256C-482.822-50.663-483.028-48.905-483.189-48.459L-483.189-48.459z M-482.42-53.768
			c0,0-0.414,0.593-0.288,1.146c0.125,0.553,0.317,1.363,0.251,1.68c0,0,0.324-0.172,0.233-0.764
			c-0.094-0.592,0.044-1.399,0.044-1.399s-0.153,0.247-0.216,0.499c-0.059,0.251-0.032,0.231-0.032,0.231
			S-482.587-52.646-482.42-53.768L-482.42-53.768z M-467.593-55.384c-0.013,0.03,0.119,0.764,0.01,1.03
			c-0.109,0.265-0.593,0.794-0.593,0.794s0.233-0.553,0.268-0.827C-467.871-54.661-467.712-55.322-467.593-55.384L-467.593-55.384z
			 M-468.03-55.712c-0.008,0.024,0.106,0.715-0.01,1.218c-0.116,0.503-0.426,0.888-0.434,0.871
			c-0.008-0.017,0.174-0.309,0.128-0.782C-468.387-54.878-468.2-55.569-468.03-55.712L-468.03-55.712z M-478.023-51.996
			c-0.02,0.032-0.26,0.161-0.62,0.329c-0.357,0.17-0.416,0.355-0.191,0.389c0.225,0.033,0.329,0.023,0.545-0.313
			c0.216-0.334,0.325-0.348,0.317-0.33c-0.005,0.016,0.042,0.248-0.102,0.483c-0.141,0.234-0.33,0.303-0.33,0.303
			s0.379,0.322,0.716,0.074c0.339-0.249,0.364-0.564,0.364-0.564s0.03,0.399-0.032,0.56c-0.062,0.163-0.285,0.292-0.184,0.35
			c0.104,0.055,0.375,0.114,0.375,0.045c0-0.068-0.063-0.412,0.146-0.902c0.208-0.491,0.401-0.92,0.335-1.252
			c-0.067-0.33-0.357-0.442-0.69-0.277c-0.33,0.166-0.543,0.545-0.476,0.698C-477.78-52.251-478.023-51.996-478.023-51.996
			L-478.023-51.996z M-478.122-51.187c0,0,0.137-0.082,0.243-0.396c0.104-0.314,0.05-0.521,0.05-0.521s0.262-0.066,0.498-0.36
			c0.235-0.296,0.169-0.434,0.169-0.434s0.344,0.212,0.071,0.745c-0.275,0.532-0.468,0.473-0.468,0.473
			S-477.77-50.875-478.122-51.187L-478.122-51.187z M-480.279-48.882c0,0.022,0.124,0.359,0.66,0.719
			c0.533,0.36,1.081,0.721,1.178,0.805c0.096,0.082,1.145,0.789,2.64,1.1c1.495,0.311,2.11,0.298,2.092,0.298
			c-0.015,0-0.893,0.158-1.78,0.155c-0.888-0.003-1.701-0.338-1.715-0.345c-0.018-0.005,1.001,0.925,2.1,1.093
			c1.096,0.17,1.909-0.069,1.909-0.069s-0.426,0.37-0.823,0.98c-0.399,0.608-0.265,0.886-0.265,0.886s0.345-0.672,0.9-1.138
			c0.557-0.467,0.783-0.497,0.758-0.497c-0.022,0-0.396,0.43-0.357,2.087c0,0-1.693,0.559-3.349-0.577c0,0,0.987,0.268,1.567,0.357
			c0.58,0.089,1.296,0.138,1.247,0.128c-0.052-0.01-2.578-0.641-3.669-1.776c-1.088-1.136-0.872-1.178-0.823-1.271
			c0.05-0.093,0.147-0.316,0.018-0.281c-0.131,0.037-0.382,0.186-0.401,0.01c-0.02-0.175,0.087-0.204,0.158-0.439
			c0.072-0.237-0.032-0.355-0.161-0.242c-0.131,0.112-0.303,0.304-0.32,0.193c-0.015-0.108,0.107-0.542,0.08-0.625
			c-0.025-0.082-0.065-0.151-0.148-0.057c-0.082,0.097-0.171,0.209-0.201,0.117c-0.029-0.093-0.017-0.232-0.213-0.312
			C-479.396-47.662-480.454-48.414-480.279-48.882L-480.279-48.882z M-471.518-41.642c-0.032-0.007,0.03-1.063,0.298-1.709
			c0.268-0.645,0.691-1.081,0.689-1.065c-0.005,0.018-0.454,0.868-0.578,1.875c-0.122,1.006-0.015,1.013-0.032,1.006
			c-0.018-0.008-0.541,0.119-1.614,0.1c-1.073-0.019-2.266-0.977-2.266-0.953c0,0.022,0.439,0.125,1.006,0.029
			c0.57-0.097,1.078-0.349,1.078-0.349s0.05,0.239,0.114,0.421c0.067,0.183,0.112,0.15,0.112,0.15s-0.089-0.904,0.342-1.576
			c0.436-0.673,0.733-0.803,0.714-0.778C-471.674-44.469-471.971-42.357-471.518-41.642L-471.518-41.642z M-461.379-47.212
			c0.008-0.02,0.167-0.47,0.254-0.967c0.083-0.496,0.193-0.857,0.193-0.857s0.293,0.592,0.156,1.056
			C-460.91-47.517-461.26-47.197-461.379-47.212L-461.379-47.212z M-462.502-46.673c-0.007-0.04-0.146-0.321-0.255-0.656
			c-0.109-0.333-0.206-0.653-0.162-1.156c0.042-0.504,0.06-0.54,0.075-0.528c0.017,0.015,0.379,0.355,0.491,0.637
			c0.114,0.281,0.064,1.277,0.134,1.247c0.069-0.029,0.325-0.249,0.275-0.841c-0.05-0.592,0.064-1.082,0.188-1.086
			c0.122-0.003,0.414,0.746,0.271,1.332c-0.142,0.585-0.271,0.859-0.36,0.869c-0.089,0.01-0.185-0.15-0.185-0.15
			S-462.308-46.629-462.502-46.673L-462.502-46.673z M-462.839-46.451c0,0-0.62-0.291-0.768-0.658
			c-0.149-0.368-0.249-1.301-0.249-1.301s0.439,0.402,0.615,0.888C-463.064-47.039-462.834-46.517-462.839-46.451L-462.839-46.451z
			 M-464.24-44.708c0.015-0.005,0.275-0.286,0.64-0.905c0.364-0.62,0.322-0.913,0.322-0.913s0.261,0.181,0.466,0.179
			c0.204-0.005,0.189-0.237,0.189-0.237s0.134,0.227,0.31,0.088c0.176-0.14,0.285-0.291,0.285-0.291s-0.062,0.267,0.204,0.154
			c0.265-0.112,0.317-0.304,0.317-0.304s-0.228,0.514-0.451,0.718c-0.221,0.206-0.268,0.633-0.883,1.066
			C-463.458-44.72-464.24-44.708-464.24-44.708L-464.24-44.708z M-472.665-41.047c0,0,0.88-0.057,1.497-0.359
			c0,0,0.268,0.862,0.863,1.135C-470.305-40.272-472.564-40.92-472.665-41.047L-472.665-41.047z M-460.523-46.839
			c0,0,0.003,0.008,0.005,0.021c0.039,0.142,0.292,1,0.766,1.479c0.519,0.522,0.964,0.853,0.964,0.853s-0.381,1.164-0.639,1.872
			s-0.196,1.287-0.012,1.553c0.18,0.265,0.714,0.743,1.039,1.277c0.324,0.532,0.679,1.011,0.922,1.092
			c0.24,0.083,0.411,0.196,0.508,0.226c0.1,0.03,0.069,0.11,0.039,0.11c-0.027,0-0.126,0-0.126,0s-0.111,0.143-0.25,0.279
			c-0.139,0.139-0.359,0.126-0.546-0.01c-0.183-0.134-0.247-0.185-0.247-0.185s-0.429,0.089-0.744-0.107
			c-0.317-0.196-0.384-0.484-0.934-0.57c-0.553-0.084-1.017-0.006-1.361-0.34c-0.347-0.338-0.218-0.865-0.069-1.349
			c0.148-0.483,0.315-0.967,0.252-1.517C-461.022-42.704-460.883-45.909-460.523-46.839L-460.523-46.839z M-474.76-61.105
			c0,0,0.58,0.503,0.86,0.969c0.283,0.467,0.371,0.65,0.371,0.65s-0.243,0.218-0.401,0.327c-0.158,0.109-0.226,0.103-0.226,0.103
			S-474.525-60.602-474.76-61.105L-474.76-61.105z M-476.354-60.762c0,0,0.042,0.569,0.038,1.175
			c-0.007,0.606-0.117,1.361-0.136,1.341C-476.473-58.266-476.424-60.722-476.354-60.762L-476.354-60.762z M-470.903-58.69
			c0,0,0.329,0.301,0.319,1.317c-0.01,1.017-0.944,2.089-0.932,2.045C-471.503-55.371-470.912-58.531-470.903-58.69L-470.903-58.69z
			 M-472.465-58.072c0,0-0.093-0.971-0.255-1.51c-0.163-0.539-0.213-0.588-0.213-0.588s0.099,0.761,0.119,1.023
			c0.02,0.262,0.05,0.586,0.05,0.586s-0.139-0.42-0.191-0.43c-0.052-0.01-0.243,0.204-0.243,0.204s0.075,0.347,0.057,0.536
			c-0.017,0.189-0.047,0.256-0.047,0.256s-0.035-0.695-0.079-0.733c-0.043-0.036-0.149,0.099-0.437,0.087
			c-0.288-0.014-0.265-0.049-0.298,0.129c-0.035,0.179-0.035,0.377-0.035,0.377s-0.158-0.831-0.515-1.579
			c-0.357-0.747-0.476-0.887-0.481-0.87c-0.002,0.016-0.01,0.281-0.102,0.404c-0.094,0.123-0.154,0.315-0.097,0.464
			c0.057,0.148,0.119,0.113,0.119,0.113s-0.02,0.702,0.213,0.805c0.23,0.102,0.287-0.051,0.285-0.027
			c-0.005,0.023,0.395,1.308,0.395,1.308s0.181,0.176,0.314-0.073c0.131-0.248,0.268-0.38,0.293-0.312
			c0.027,0.07,0.173,0.279,0.134,0.375c-0.04,0.095,0.25-0.125,0.6-0.073c0,0,0.054,0.08-0.02,0.087
			c-0.077,0.006-0.315,0.065-0.483,0.174c-0.171,0.109-0.157,0.136-0.157,0.136s0.32-0.003,0.357,0.021
			c0.038,0.023,0.251,0.356,0.461,0.262c0.211-0.095,0.635-0.478,0.635-0.478s-0.233,0.419-0.397,0.53
			c-0.164,0.11-0.221,0.11-0.221,0.11s0.246,0.535,0.404,1.018c0.159,0.483,0.238,0.526,0.503,0.17
			c0.265-0.359,0.364-0.772,0.449-1.692c0.082-0.92,0.084-1.304,0.059-1.288c-0.027,0.017-0.342,0.493-0.409,0.606
			c-0.065,0.111-0.119,1.039-0.136,1.039c-0.015,0-0.117-1.473-0.235-2.194c-0.119-0.721-0.382-1.129-0.382-1.129
			S-472.323-58.244-472.465-58.072L-472.465-58.072z M-471.776-60.516c0,0,0.268,0.52,0.243,1.129
			c-0.022,0.608-0.151,1.228-0.154,1.205C-471.691-58.205-471.726-60.294-471.776-60.516L-471.776-60.516z M-471.376-59.286
			c-0.007-0.018-0.035-1.127-0.035-1.286c0-0.159,0.213-0.102,0.283,0.14c0.069,0.242,0.166,0.655,0.091,0.866
			C-471.109-59.353-471.317-59.231-471.376-59.286L-471.376-59.286z M-472.133-63.159c-0.007,0.002-0.012,0-0.02-0.007
			c-0.037-0.038-0.065-0.194,0.069-0.131c0.156,0.073,0.625,0.519,0.729,0.711c0.102,0.191,0.116,0.317,0.116,0.317
			S-471.827-62.953-472.133-63.159L-472.133-63.159z M-475.492-60.21c-0.015-0.007,0.005-0.517-0.119-0.625
			c-0.122-0.109-0.283-0.518-0.313-0.627c-0.029-0.109,0.144-0.063,0.233,0.004c0.089,0.066,0.198,0.01,0.189-0.008
			c-0.01-0.016-0.122-0.337-0.122-0.337s0.206,0.105,0.241,0.034c0.037-0.073-0.025-0.467-0.025-0.467s0.251-0.006,0.345-0.02
			c0.092-0.014,0.055-0.016,0.052-0.034c-0.002-0.016-0.159-0.271-0.097-0.4c0.065-0.129,0.699-0.556,0.699-0.556
			s-0.265,0.321-0.377,0.509c-0.114,0.189-0.065,0.278-0.065,0.278s0.097-0.199,0.352-0.143c0.255,0.057,0.582,0.229,0.582,0.229
			s-0.211-0.458-0.357-0.541c0,0,0.345-0.006,0.56,0.176c0.213,0.183,0.328,0.377,0.328,0.377s-0.149-0.603-0.464-0.801
			c0,0,0.201-0.026,0.345,0.069c0.141,0.096,0.198,0.179,0.198,0.179s-0.06-0.347-0.275-0.515c0,0,0.345-0.129,0.848,0.158
			c0.504,0.288,1.121,1.371,1.096,1.368c-0.022-0.004-0.562-0.591-0.899-0.825c-0.337-0.235-0.407-0.186-0.407-0.186
			s0.473,0.444,0.781,0.884c0.308,0.44,0.253,0.623,0.253,0.623s-0.439-0.668-0.639-0.738c-0.204-0.069-0.211-0.073-0.211-0.073
			s0.441,0.388,0.54,0.785c0.099,0.397,0.144,0.731,0.144,0.731s-0.374-0.626-0.553-0.791c-0.181-0.166-0.221-0.175-0.221-0.175
			s0.235,0.546,0.255,0.752c0.02,0.205,0.025,0.242,0.025,0.242s-0.424-0.741-0.689-0.934c-0.266-0.192-0.268-0.162-0.268-0.162
			s0.24,0.496,0.327,0.725c0.087,0.228,0.08,0.271,0.08,0.271s-0.308-0.64-0.838-0.984c-0.531-0.344-0.587-0.394-0.587-0.394
			s0.319,0.411,0.527,0.781c0.208,0.37,0.221,0.622,0.221,0.622s-0.317-0.44-0.473-0.622c-0.156-0.183-0.206-0.202-0.206-0.202
			s0.263,0.547,0.332,0.672c0.069,0.126,0.092,0.188,0.092,0.188s-0.238-0.155-0.476-0.411c-0.238-0.254-0.533-0.396-0.51-0.384
			c0.024,0.013,0.168,0.431,0.277,0.748c0.111,0.318,0.134,0.56,0.134,0.56s-0.411-0.87-0.565-1.023
			c-0.156-0.152-0.265-0.125-0.265-0.125S-475.405-60.588-475.492-60.21L-475.492-60.21z" />
		</g>
	</g>
</svg>